<svg width="1167" height="854" viewBox="0 0 1167 854" fill="none" xmlns="http://www.w3.org/2000/svg">
<g opacity="0.06">
<path fill-rule="evenodd" clip-rule="evenodd" d="M386.906 8.06232L754.608 201.562L386.567 387.427L17.9536 199.463L386.906 8.06232Z" fill="#90CEDD"/>
<path fill-rule="evenodd" clip-rule="evenodd" d="M726.342 4.58466L1158.68 224.507L723.584 446.102L538.864 351.144L742.542 241.534L708.889 223.467L500.08 331.212L293.92 225.248L726.342 4.58466Z" fill="#3E6366" stroke="#3E6366" stroke-width="0.9"/>
<path fill-rule="evenodd" clip-rule="evenodd" d="M534.178 748.109L538.504 764.119L562.275 852.058H514.733H467.169L490.962 764.119L494.969 749.275C481.949 742.723 473.022 729.512 473.022 714.308C473.022 692.636 491.195 674.951 513.482 674.951C535.768 674.951 553.963 692.636 553.963 714.308C553.963 728.643 546.011 741.217 534.178 748.109H534.178Z" fill="#3E6366"/>
<path fill-rule="evenodd" clip-rule="evenodd" d="M495.626 762.02H533.711V519.727C573.747 559.254 634.416 585.464 725.217 592.207C856.415 577.257 927.073 529.015 944.969 451.764L945.584 364.991L720.595 479.14L495.626 358.609V762.021L495.626 762.02Z" fill="#3E6366"/>
</g>
</svg>
