<svg>
	<symbol id="vk" viewBox="0 0 26 26" xmlns="http://www.w3.org/2000/svg">
		<path xmlns="http://www.w3.org/2000/svg" d="M13 1C6.3725 1 1 6.3725 1 13C1 19.6275 6.3725 25 13 25C19.6275 25 25 19.6275 25 13C25 6.3725 19.6275 1 13 1ZM17.615 14.5388C17.615 14.5388 18.6763 15.5863 18.9375 16.0725C18.945 16.0825 18.9487 16.0925 18.9513 16.0975C19.0575 16.2762 19.0825 16.415 19.03 16.5188C18.9425 16.6912 18.6425 16.7763 18.54 16.7838H16.665C16.535 16.7838 16.2625 16.75 15.9325 16.5225C15.6788 16.345 15.4288 16.0538 15.185 15.77C14.8213 15.3475 14.5063 14.9825 14.1888 14.9825C14.1484 14.9824 14.1083 14.9888 14.07 15.0013C13.83 15.0788 13.5225 15.4213 13.5225 16.3337C13.5225 16.6188 13.2975 16.7825 13.1388 16.7825H12.28C11.9875 16.7825 10.4637 16.68 9.11375 15.2563C7.46125 13.5125 5.97375 10.015 5.96125 9.9825C5.8675 9.75625 6.06125 9.635 6.2725 9.635H8.16625C8.41875 9.635 8.50125 9.78875 8.55875 9.925C8.62625 10.0837 8.87375 10.715 9.28 11.425C9.93875 12.5825 10.3425 13.0525 10.6663 13.0525C10.727 13.0518 10.7866 13.0363 10.84 13.0075C11.2625 12.7725 11.1838 11.2662 11.165 10.9537C11.165 10.895 11.1637 10.28 10.9475 9.985C10.7925 9.77125 10.5287 9.69 10.3687 9.66C10.4335 9.57064 10.5188 9.49818 10.6175 9.44875C10.9075 9.30375 11.43 9.2825 11.9488 9.2825H12.2375C12.8 9.29 12.945 9.32625 13.1488 9.3775C13.5613 9.47625 13.57 9.7425 13.5338 10.6538C13.5225 10.9125 13.5113 11.205 13.5113 11.55C13.5113 11.625 13.5075 11.705 13.5075 11.79C13.495 12.2537 13.48 12.78 13.8075 12.9963C13.8502 13.023 13.8996 13.0373 13.95 13.0375C14.0638 13.0375 14.4062 13.0375 15.3337 11.4463C15.6198 10.9341 15.8684 10.4018 16.0775 9.85375C16.0963 9.82125 16.1513 9.72125 16.2163 9.6825C16.2642 9.65804 16.3174 9.64561 16.3713 9.64625H18.5975C18.84 9.64625 19.0063 9.6825 19.0375 9.77625C19.0925 9.925 19.0275 10.3787 18.0112 11.755L17.5575 12.3538C16.6363 13.5613 16.6363 13.6225 17.615 14.5388Z"/>
	</symbol>
	<symbol id="youtube" viewBox="0 0 26 26" xmlns="http://www.w3.org/2000/svg">
		<path xmlns="http://www.w3.org/2000/svg" d="M15.0037 12.7913L12.1963 11.4813C11.9513 11.3675 11.75 11.495 11.75 11.7662V14.2338C11.75 14.505 11.9513 14.6325 12.1963 14.5188L15.0025 13.2087C15.2488 13.0938 15.2487 12.9063 15.0037 12.7913ZM13 1C6.3725 1 1 6.3725 1 13C1 19.6275 6.3725 25 13 25C19.6275 25 25 19.6275 25 13C25 6.3725 19.6275 1 13 1ZM13 17.875C6.8575 17.875 6.75 17.3213 6.75 13C6.75 8.67875 6.8575 8.125 13 8.125C19.1425 8.125 19.25 8.67875 19.25 13C19.25 17.3213 19.1425 17.875 13 17.875Z"/>
	</symbol>
	<symbol id="arrow" viewBox="0 0 16 9" xmlns="http://www.w3.org/2000/svg">
		<path xmlns="http://www.w3.org/2000/svg" fill="none" d="M1 0.5L8 7.5L15 0.5"/>
	</symbol>
	<symbol id="visible" viewBox="0 0 25 25" xmlns="http://www.w3.org/2000/svg">
		<path d="M12.5 4.16675C9.02778 4.16675 5.97248 5.86636 3.76994 7.65592C2.66867 8.55071 1.77699 9.47318 1.13932 10.2703C0.82049 10.6688 0.564878 11.0339 0.372314 11.3709C0.179751 11.7079 0 11.9358 0 12.5001C0 13.0643 0.179751 13.2922 0.372314 13.6292C0.564878 13.9662 0.82049 14.3314 1.13932 14.7299C1.77699 15.527 2.66867 16.4495 3.76994 17.3442C5.97248 19.1338 9.02778 20.8334 12.5 20.8334C15.9722 20.8334 19.0275 19.1338 21.2301 17.3442C22.3313 16.4495 23.223 15.527 23.8607 14.7299C24.1795 14.3314 24.4351 13.9662 24.6277 13.6292C24.8202 13.2922 25 13.0643 25 12.5001C25 11.9358 24.8202 11.7079 24.6277 11.3709C24.4351 11.0339 24.1795 10.6688 23.8607 10.2703C23.223 9.47318 22.3313 8.55071 21.2301 7.65592C19.0275 5.86636 15.9722 4.16675 12.5 4.16675ZM12.5 6.25008C15.2778 6.25008 17.9516 7.67547 19.9158 9.27132C20.8978 10.0692 21.6989 10.9046 22.2331 11.5723C22.5002 11.9062 22.7003 12.2003 22.817 12.4045C22.8403 12.4453 22.8397 12.4639 22.8536 12.5001C22.8397 12.5363 22.8403 12.5548 22.817 12.5957C22.7003 12.7999 22.5002 13.0939 22.2331 13.4278C21.6989 14.0956 20.8978 14.9309 19.9158 15.7288C17.9516 17.3247 15.2778 18.7501 12.5 18.7501C9.72222 18.7501 7.04835 17.3247 5.08423 15.7288C4.10217 14.9309 3.30114 14.0956 2.76693 13.4278C2.49982 13.0939 2.29971 12.7999 2.18302 12.5957C2.15967 12.5548 2.16026 12.5363 2.1464 12.5001C2.16026 12.4639 2.15967 12.4453 2.18302 12.4045C2.29971 12.2003 2.49982 11.9062 2.76693 11.5723C3.30114 10.9046 4.10217 10.0692 5.08423 9.27132C7.04835 7.67547 9.72222 6.25008 12.5 6.25008ZM12.4369 8.33341C11.3428 8.34998 10.2992 8.79627 9.53134 9.57588C8.76353 10.3555 8.33321 11.4059 8.33333 12.5001C8.33333 13.6052 8.77232 14.665 9.55372 15.4464C10.3351 16.2278 11.3949 16.6667 12.5 16.6667C13.6051 16.6667 14.6649 16.2278 15.4463 15.4464C16.2277 14.665 16.6667 13.6052 16.6667 12.5001C16.6663 12.0849 16.6039 11.6721 16.4815 11.2753C16.3164 11.6404 16.0495 11.9501 15.7128 12.1673C15.3762 12.3845 14.984 12.5001 14.5833 12.5001C14.0308 12.5001 13.5009 12.2806 13.1102 11.8899C12.7195 11.4992 12.5 10.9693 12.5 10.4167C12.5002 10.0159 12.616 9.62352 12.8336 9.28683C13.0512 8.95013 13.3614 8.68338 13.7268 8.51855C13.3294 8.39596 12.9159 8.33356 12.5 8.33341C12.479 8.33326 12.458 8.33326 12.4369 8.33341Z" />
	</symbol>
	<symbol id="search" viewBox="0 0 25 25" xmlns="http://www.w3.org/2000/svg">
		<path d="M24.6849 23.2181L17.512 16.0343C18.9261 14.337 19.7766 12.168 19.7766 9.799C19.7766 4.39442 15.3448 0 9.89343 0C4.44205 0 0 4.39955 0 9.80412C0 15.2087 4.43181 19.6031 9.88318 19.6031C12.199 19.6031 14.3304 18.8083 16.0211 17.4803L23.2196 24.6846C23.6397 25.1051 24.2648 25.1051 24.6849 24.6846C25.105 24.2642 25.105 23.6386 24.6849 23.2181ZM2.10063 9.80412C2.10063 5.5584 5.59484 2.10748 9.88318 2.10748C14.1715 2.10748 17.6657 5.5584 17.6657 9.80412C17.6657 14.0498 14.1715 17.5008 9.88318 17.5008C5.59484 17.5008 2.10063 14.0447 2.10063 9.80412Z" />
	</symbol>
	<symbol id="arrow-btn" viewBox="0 0 22 7" fill="none" xmlns="http://www.w3.org/2000/svg">
		<path d="M21.2828 3.78284C21.4391 3.62663 21.4391 3.37337 21.2828 3.21716L18.7373 0.671571C18.581 0.515362 18.3278 0.515362 18.1716 0.671571C18.0154 0.827781 18.0154 1.08105 18.1716 1.23726L20.4343 3.5L18.1716 5.76274C18.0154 5.91895 18.0154 6.17222 18.1716 6.32843C18.3278 6.48464 18.581 6.48464 18.7373 6.32843L21.2828 3.78284ZM3.49691e-08 3.9L21 3.9L21 3.1L-3.49691e-08 3.1L3.49691e-08 3.9Z" />
	</symbol>

</svg>
