<svg width="26" height="26" viewBox="0 0 26 26" fill="none" xmlns="http://www.w3.org/2000/svg">
<path d="M13 1C6.3725 1 1 6.3725 1 13C1 19.6275 6.3725 25 13 25C19.6275 25 25 19.6275 25 13C25 6.3725 19.6275 1 13 1ZM17.615 14.5388C17.615 14.5388 18.6763 15.5863 18.9375 16.0725C18.945 16.0825 18.9487 16.0925 18.9513 16.0975C19.0575 16.2762 19.0825 16.415 19.03 16.5188C18.9425 16.6912 18.6425 16.7763 18.54 16.7838H16.665C16.535 16.7838 16.2625 16.75 15.9325 16.5225C15.6788 16.345 15.4288 16.0538 15.185 15.77C14.8213 15.3475 14.5063 14.9825 14.1888 14.9825C14.1484 14.9824 14.1083 14.9888 14.07 15.0013C13.83 15.0788 13.5225 15.4213 13.5225 16.3337C13.5225 16.6188 13.2975 16.7825 13.1388 16.7825H12.28C11.9875 16.7825 10.4637 16.68 9.11375 15.2563C7.46125 13.5125 5.97375 10.015 5.96125 9.9825C5.8675 9.75625 6.06125 9.635 6.2725 9.635H8.16625C8.41875 9.635 8.50125 9.78875 8.55875 9.925C8.62625 10.0837 8.87375 10.715 9.28 11.425C9.93875 12.5825 10.3425 13.0525 10.6663 13.0525C10.727 13.0518 10.7866 13.0363 10.84 13.0075C11.2625 12.7725 11.1838 11.2662 11.165 10.9537C11.165 10.895 11.1637 10.28 10.9475 9.985C10.7925 9.77125 10.5287 9.69 10.3687 9.66C10.4335 9.57064 10.5188 9.49818 10.6175 9.44875C10.9075 9.30375 11.43 9.2825 11.9488 9.2825H12.2375C12.8 9.29 12.945 9.32625 13.1488 9.3775C13.5613 9.47625 13.57 9.7425 13.5338 10.6538C13.5225 10.9125 13.5113 11.205 13.5113 11.55C13.5113 11.625 13.5075 11.705 13.5075 11.79C13.495 12.2537 13.48 12.78 13.8075 12.9963C13.8502 13.023 13.8996 13.0373 13.95 13.0375C14.0638 13.0375 14.4062 13.0375 15.3337 11.4463C15.6198 10.9341 15.8684 10.4018 16.0775 9.85375C16.0963 9.82125 16.1513 9.72125 16.2163 9.6825C16.2642 9.65804 16.3174 9.64561 16.3713 9.64625H18.5975C18.84 9.64625 19.0063 9.6825 19.0375 9.77625C19.0925 9.925 19.0275 10.3787 18.0112 11.755L17.5575 12.3538C16.6363 13.5613 16.6363 13.6225 17.615 14.5388Z" fill="white"/>
</svg>
