<svg width="26" height="26" viewBox="0 0 26 26" fill="none" xmlns="http://www.w3.org/2000/svg">
<path d="M15.0037 12.7913L12.1963 11.4813C11.9513 11.3675 11.75 11.495 11.75 11.7662V14.2338C11.75 14.505 11.9513 14.6325 12.1963 14.5188L15.0025 13.2087C15.2488 13.0938 15.2487 12.9063 15.0037 12.7913ZM13 1C6.3725 1 1 6.3725 1 13C1 19.6275 6.3725 25 13 25C19.6275 25 25 19.6275 25 13C25 6.3725 19.6275 1 13 1ZM13 17.875C6.8575 17.875 6.75 17.3213 6.75 13C6.75 8.67875 6.8575 8.125 13 8.125C19.1425 8.125 19.25 8.67875 19.25 13C19.25 17.3213 19.1425 17.875 13 17.875Z" fill="white"/>
</svg>
